<mxfile host="app.diagrams.net" modified="2020-12-03T14:07:49.753Z" agent="5.0 (X11; Linux x86_64) AppleWebKit/537.36 (KHTML, like Gecko) Chrome/87.0.4280.66 Safari/537.36" etag="FdpYsg2fOpgyKoIKr0Ek" version="13.10.6" type="gitlab">
  <diagram name="Page-1" id="03018318-947c-dd8e-b7a3-06fadd420f32">
    <mxGraphModel dx="1520" dy="817" grid="1" gridSize="10" guides="1" tooltips="1" connect="1" arrows="1" fold="1" page="1" pageScale="1" pageWidth="1100" pageHeight="850" background="#ffffff" math="0" shadow="0">
      <root>
        <mxCell id="0" />
        <mxCell id="1" parent="0" />
        <mxCell id="677b7b8949515195-1" value="" style="whiteSpace=wrap;html=1;rounded=0;shadow=0;labelBackgroundColor=none;strokeColor=#000000;strokeWidth=1;fillColor=none;fontFamily=Verdana;fontSize=12;fontColor=#000000;align=center;comic=1;" parent="1" vertex="1">
          <mxGeometry x="20" y="20" width="1060" height="1610" as="geometry" />
        </mxCell>
        <mxCell id="677b7b8949515195-2" value="LOGO" style="whiteSpace=wrap;html=1;rounded=0;shadow=0;labelBackgroundColor=none;strokeWidth=1;fontFamily=Verdana;fontSize=28;align=center;comic=1;" parent="1" vertex="1">
          <mxGeometry x="40" y="40" width="190" height="50" as="geometry" />
        </mxCell>
        <mxCell id="677b7b8949515195-9" value="" style="line;strokeWidth=1;html=1;rounded=0;shadow=0;labelBackgroundColor=none;fillColor=none;fontFamily=Verdana;fontSize=14;fontColor=#000000;align=center;comic=1;" parent="1" vertex="1">
          <mxGeometry x="20" y="110" width="1060" height="10" as="geometry" />
        </mxCell>
        <mxCell id="677b7b8949515195-11" value="Login" style="text;html=1;points=[];align=left;verticalAlign=top;spacingTop=-4;fontSize=18;fontFamily=Verdana" parent="1" vertex="1">
          <mxGeometry x="640" y="55" width="60" height="20" as="geometry" />
        </mxCell>
        <mxCell id="677b7b8949515195-12" value="Predictions" style="text;html=1;points=[];align=left;verticalAlign=top;spacingTop=-4;fontSize=18;fontFamily=Verdana" parent="1" vertex="1">
          <mxGeometry x="780" y="55" width="60" height="20" as="geometry" />
        </mxCell>
        <mxCell id="677b7b8949515195-13" value="Sign Out" style="text;html=1;points=[];align=left;verticalAlign=top;spacingTop=-4;fontSize=18;fontFamily=Verdana" parent="1" vertex="1">
          <mxGeometry x="940" y="55" width="60" height="20" as="geometry" />
        </mxCell>
        <mxCell id="677b7b8949515195-15" value="&lt;div style=&quot;text-align: justify&quot;&gt;&lt;br&gt;&lt;/div&gt;" style="whiteSpace=wrap;html=1;rounded=0;shadow=0;labelBackgroundColor=none;strokeWidth=1;fillColor=none;fontFamily=Verdana;fontSize=12;align=center;verticalAlign=top;spacing=10;comic=1;" parent="1" vertex="1">
          <mxGeometry x="40" y="1480" width="1020" height="60" as="geometry" />
        </mxCell>
        <mxCell id="5u6ulrgasKh-Fv48c_LY-3" value="Age" style="strokeColor=none;fillColor=none;whiteSpace=wrap;align=left;verticalAlign=middle;fontStyle=0;fontSize=18;spacing=15;fontFamily=Times New Roman;" parent="1" vertex="1">
          <mxGeometry x="90" y="250" width="210" height="40" as="geometry" />
        </mxCell>
        <mxCell id="5u6ulrgasKh-Fv48c_LY-4" value="" style="html=1;shadow=0;dashed=0;shape=mxgraph.bootstrap.rrect;rSize=5;strokeColor=#999999;fillColor=#ffffff;fontColor=#777777;whiteSpace=wrap;align=left;verticalAlign=middle;fontStyle=0;fontSize=14;spacing=15;" parent="1" vertex="1">
          <mxGeometry x="300" y="250" width="650" height="40" as="geometry" />
        </mxCell>
        <mxCell id="5u6ulrgasKh-Fv48c_LY-6" value="Height" style="strokeColor=none;fillColor=none;whiteSpace=wrap;align=left;verticalAlign=middle;fontStyle=0;fontSize=18;spacing=15;fontFamily=Times New Roman;" parent="1" vertex="1">
          <mxGeometry x="90" y="300" width="210" height="40" as="geometry" />
        </mxCell>
        <mxCell id="5u6ulrgasKh-Fv48c_LY-7" value="" style="html=1;shadow=0;dashed=0;shape=mxgraph.bootstrap.rrect;rSize=5;strokeColor=#999999;fillColor=#ffffff;fontColor=#777777;whiteSpace=wrap;align=left;verticalAlign=middle;fontStyle=0;fontSize=14;spacing=15;" parent="1" vertex="1">
          <mxGeometry x="300" y="300" width="650" height="40" as="geometry" />
        </mxCell>
        <mxCell id="5u6ulrgasKh-Fv48c_LY-8" value="Weight" style="strokeColor=none;fillColor=none;whiteSpace=wrap;align=left;verticalAlign=middle;fontStyle=0;fontSize=18;spacing=15;fontFamily=Times New Roman;" parent="1" vertex="1">
          <mxGeometry x="90" y="350" width="210" height="40" as="geometry" />
        </mxCell>
        <mxCell id="5u6ulrgasKh-Fv48c_LY-9" value="" style="html=1;shadow=0;dashed=0;shape=mxgraph.bootstrap.rrect;rSize=5;strokeColor=#999999;fillColor=#ffffff;fontColor=#777777;whiteSpace=wrap;align=left;verticalAlign=middle;fontStyle=0;fontSize=14;spacing=15;" parent="1" vertex="1">
          <mxGeometry x="300" y="350" width="650" height="40" as="geometry" />
        </mxCell>
        <mxCell id="5u6ulrgasKh-Fv48c_LY-10" value="Gender" style="strokeColor=none;fillColor=none;whiteSpace=wrap;align=left;verticalAlign=middle;fontStyle=0;fontSize=18;spacing=15;fontFamily=Times New Roman;" parent="1" vertex="1">
          <mxGeometry x="90" y="400" width="210" height="40" as="geometry" />
        </mxCell>
        <mxCell id="5u6ulrgasKh-Fv48c_LY-12" value="Systolic Blood Pressure" style="strokeColor=none;fillColor=none;whiteSpace=wrap;align=left;verticalAlign=middle;fontStyle=0;fontSize=18;spacing=15;fontFamily=Times New Roman;" parent="1" vertex="1">
          <mxGeometry x="90" y="455" width="210" height="40" as="geometry" />
        </mxCell>
        <mxCell id="5u6ulrgasKh-Fv48c_LY-13" value="" style="html=1;shadow=0;dashed=0;shape=mxgraph.bootstrap.rrect;rSize=5;strokeColor=#999999;fillColor=#ffffff;fontColor=#777777;whiteSpace=wrap;align=left;verticalAlign=middle;fontStyle=0;fontSize=14;spacing=15;" parent="1" vertex="1">
          <mxGeometry x="300" y="455" width="650" height="40" as="geometry" />
        </mxCell>
        <mxCell id="5u6ulrgasKh-Fv48c_LY-14" value="Diastolic Blood Pressure" style="strokeColor=none;fillColor=none;whiteSpace=wrap;align=left;verticalAlign=middle;fontStyle=0;fontSize=18;spacing=15;fontFamily=Times New Roman;" parent="1" vertex="1">
          <mxGeometry x="90" y="510" width="210" height="40" as="geometry" />
        </mxCell>
        <mxCell id="5u6ulrgasKh-Fv48c_LY-15" value="" style="html=1;shadow=0;dashed=0;shape=mxgraph.bootstrap.rrect;rSize=5;strokeColor=#999999;fillColor=#ffffff;fontColor=#777777;whiteSpace=wrap;align=left;verticalAlign=middle;fontStyle=0;fontSize=14;spacing=15;" parent="1" vertex="1">
          <mxGeometry x="300" y="510" width="650" height="40" as="geometry" />
        </mxCell>
        <mxCell id="5u6ulrgasKh-Fv48c_LY-16" value="Cholesterol" style="strokeColor=none;fillColor=none;whiteSpace=wrap;align=left;verticalAlign=middle;fontStyle=0;fontSize=18;spacing=15;fontFamily=Times New Roman;" parent="1" vertex="1">
          <mxGeometry x="90" y="570" width="140" height="40" as="geometry" />
        </mxCell>
        <mxCell id="5u6ulrgasKh-Fv48c_LY-18" value="Clucose" style="strokeColor=none;fillColor=none;whiteSpace=wrap;align=left;verticalAlign=middle;fontStyle=0;fontSize=18;spacing=15;fontFamily=Times New Roman;" parent="1" vertex="1">
          <mxGeometry x="550" y="577" width="120" height="40" as="geometry" />
        </mxCell>
        <mxCell id="5u6ulrgasKh-Fv48c_LY-20" value="Smoking" style="strokeColor=none;fillColor=none;whiteSpace=wrap;align=left;verticalAlign=middle;fontStyle=0;fontSize=18;spacing=15;fontFamily=Times New Roman;" parent="1" vertex="1">
          <mxGeometry x="90" y="630" width="130" height="40" as="geometry" />
        </mxCell>
        <mxCell id="5u6ulrgasKh-Fv48c_LY-22" value="Alcohol Intake" style="strokeColor=none;fillColor=none;whiteSpace=wrap;align=left;verticalAlign=middle;fontStyle=0;fontSize=18;spacing=15;fontFamily=Times New Roman;" parent="1" vertex="1">
          <mxGeometry x="545" y="633.5" width="210" height="40" as="geometry" />
        </mxCell>
        <mxCell id="5u6ulrgasKh-Fv48c_LY-25" value="Physical Activity" style="strokeColor=none;fillColor=none;whiteSpace=wrap;align=left;verticalAlign=middle;fontStyle=0;fontSize=18;spacing=15;fontFamily=Times New Roman;" parent="1" vertex="1">
          <mxGeometry x="90" y="690" width="200" height="40" as="geometry" />
        </mxCell>
        <mxCell id="5u6ulrgasKh-Fv48c_LY-28" value="&lt;font style=&quot;font-size: 20px&quot;&gt;Submit&lt;/font&gt;" style="html=1;shadow=0;dashed=0;shape=mxgraph.bootstrap.rrect;rSize=5;strokeColor=none;strokeWidth=1;fillColor=#0085FC;fontColor=#FFFFFF;whiteSpace=wrap;align=center;verticalAlign=middle;spacingLeft=0;fontStyle=0;fontSize=16;spacing=5;" parent="1" vertex="1">
          <mxGeometry x="485" y="760" width="130" height="50" as="geometry" />
        </mxCell>
        <mxCell id="5u6ulrgasKh-Fv48c_LY-29" value="Prediction" style="strokeColor=none;fillColor=none;whiteSpace=wrap;align=left;verticalAlign=middle;fontStyle=1;fontSize=24;spacing=15;" parent="1" vertex="1">
          <mxGeometry x="85" y="150" width="220" height="80" as="geometry" />
        </mxCell>
        <mxCell id="5u6ulrgasKh-Fv48c_LY-30" value="Presence of Heart Disease" style="strokeColor=none;fillColor=none;align=left;verticalAlign=middle;fontStyle=1;fontSize=28;fontColor=#FF0000;" parent="1" vertex="1">
          <mxGeometry x="290" y="160" width="600" height="60" as="geometry" />
        </mxCell>
        <mxCell id="5u6ulrgasKh-Fv48c_LY-33" value="&lt;font style=&quot;font-size: 16px&quot;&gt;Male&lt;/font&gt;" style="rounded=1;fillColor=#F1F2F4;strokeColor=none;html=1;fontColor=#596780;align=left;fontSize=12;spacingLeft=10" parent="1" vertex="1">
          <mxGeometry x="300" y="407" width="650" height="33" as="geometry" />
        </mxCell>
        <mxCell id="5u6ulrgasKh-Fv48c_LY-34" value="" style="shape=triangle;direction=south;fillColor=#596780;strokeColor=none;html=1" parent="5u6ulrgasKh-Fv48c_LY-33" vertex="1">
          <mxGeometry x="1" y="0.5" width="12" height="6" relative="1" as="geometry">
            <mxPoint x="-20" y="-3" as="offset" />
          </mxGeometry>
        </mxCell>
        <mxCell id="5u6ulrgasKh-Fv48c_LY-42" value="&lt;font style=&quot;font-size: 18px&quot;&gt;Normal&lt;/font&gt;" style="rounded=1;fillColor=#F1F2F4;strokeColor=none;html=1;fontColor=#596780;align=left;fontSize=12;spacingLeft=10" parent="1" vertex="1">
          <mxGeometry x="240" y="577" width="260" height="33" as="geometry" />
        </mxCell>
        <mxCell id="5u6ulrgasKh-Fv48c_LY-43" value="" style="shape=triangle;direction=south;fillColor=#596780;strokeColor=none;html=1" parent="5u6ulrgasKh-Fv48c_LY-42" vertex="1">
          <mxGeometry x="1" y="0.5" width="12" height="6" relative="1" as="geometry">
            <mxPoint x="-20" y="-3" as="offset" />
          </mxGeometry>
        </mxCell>
        <mxCell id="5u6ulrgasKh-Fv48c_LY-45" value="&lt;font style=&quot;font-size: 18px&quot;&gt;Normal&lt;/font&gt;" style="rounded=1;fillColor=#F1F2F4;strokeColor=none;html=1;fontColor=#596780;align=left;fontSize=12;spacingLeft=10" parent="1" vertex="1">
          <mxGeometry x="700" y="584" width="250" height="33" as="geometry" />
        </mxCell>
        <mxCell id="5u6ulrgasKh-Fv48c_LY-46" value="" style="shape=triangle;direction=south;fillColor=#596780;strokeColor=none;html=1" parent="5u6ulrgasKh-Fv48c_LY-45" vertex="1">
          <mxGeometry x="1" y="0.5" width="12" height="6" relative="1" as="geometry">
            <mxPoint x="-20" y="-3" as="offset" />
          </mxGeometry>
        </mxCell>
        <mxCell id="5u6ulrgasKh-Fv48c_LY-48" value="&lt;span style=&quot;font-size: 18px&quot;&gt;No&lt;/span&gt;" style="rounded=1;fillColor=#F1F2F4;strokeColor=none;html=1;fontColor=#596780;align=left;fontSize=12;spacingLeft=10" parent="1" vertex="1">
          <mxGeometry x="240" y="633" width="260" height="33" as="geometry" />
        </mxCell>
        <mxCell id="5u6ulrgasKh-Fv48c_LY-49" value="" style="shape=triangle;direction=south;fillColor=#596780;strokeColor=none;html=1" parent="5u6ulrgasKh-Fv48c_LY-48" vertex="1">
          <mxGeometry x="1" y="0.5" width="12" height="6" relative="1" as="geometry">
            <mxPoint x="-20" y="-3" as="offset" />
          </mxGeometry>
        </mxCell>
        <mxCell id="5u6ulrgasKh-Fv48c_LY-50" value="&lt;span style=&quot;font-size: 18px&quot;&gt;Yes&lt;/span&gt;" style="rounded=1;fillColor=#F1F2F4;strokeColor=none;html=1;fontColor=#596780;align=left;fontSize=12;spacingLeft=10" parent="1" vertex="1">
          <mxGeometry x="700" y="637" width="250" height="33" as="geometry" />
        </mxCell>
        <mxCell id="5u6ulrgasKh-Fv48c_LY-51" value="" style="shape=triangle;direction=south;fillColor=#596780;strokeColor=none;html=1" parent="5u6ulrgasKh-Fv48c_LY-50" vertex="1">
          <mxGeometry x="1" y="0.5" width="12" height="6" relative="1" as="geometry">
            <mxPoint x="-20" y="-3" as="offset" />
          </mxGeometry>
        </mxCell>
        <mxCell id="5u6ulrgasKh-Fv48c_LY-52" value="&lt;span style=&quot;font-size: 18px&quot;&gt;Yes&lt;/span&gt;" style="rounded=1;fillColor=#F1F2F4;strokeColor=none;html=1;fontColor=#596780;align=left;fontSize=12;spacingLeft=10" parent="1" vertex="1">
          <mxGeometry x="240" y="693" width="260" height="33" as="geometry" />
        </mxCell>
        <mxCell id="5u6ulrgasKh-Fv48c_LY-53" value="" style="shape=triangle;direction=south;fillColor=#596780;strokeColor=none;html=1" parent="5u6ulrgasKh-Fv48c_LY-52" vertex="1">
          <mxGeometry x="1" y="0.5" width="12" height="6" relative="1" as="geometry">
            <mxPoint x="-20" y="-3" as="offset" />
          </mxGeometry>
        </mxCell>
        <mxCell id="kl5-Oa0DFLlWT4JjgUK3-1" value="Sys" style="shape=table;html=1;whiteSpace=wrap;startSize=30;container=1;collapsible=0;childLayout=tableLayout;fontStyle=1;align=center;" vertex="1" parent="1">
          <mxGeometry x="40" y="870" width="1022" height="196" as="geometry" />
        </mxCell>
        <mxCell id="kl5-Oa0DFLlWT4JjgUK3-2" value="" style="shape=partialRectangle;html=1;whiteSpace=wrap;collapsible=0;dropTarget=0;pointerEvents=0;fillColor=none;top=0;left=0;bottom=0;right=0;points=[[0,0.5],[1,0.5]];portConstraint=eastwest;" vertex="1" parent="kl5-Oa0DFLlWT4JjgUK3-1">
          <mxGeometry y="30" width="1022" height="56" as="geometry" />
        </mxCell>
        <mxCell id="kl5-Oa0DFLlWT4JjgUK3-14" value="Age" style="shape=partialRectangle;html=1;whiteSpace=wrap;connectable=0;fillColor=none;top=0;left=0;bottom=0;right=0;overflow=hidden;" vertex="1" parent="kl5-Oa0DFLlWT4JjgUK3-2">
          <mxGeometry width="72" height="56" as="geometry" />
        </mxCell>
        <mxCell id="kl5-Oa0DFLlWT4JjgUK3-3" value="Height" style="shape=partialRectangle;html=1;whiteSpace=wrap;connectable=0;fillColor=none;top=0;left=0;bottom=0;right=0;overflow=hidden;" vertex="1" parent="kl5-Oa0DFLlWT4JjgUK3-2">
          <mxGeometry x="72" width="75" height="56" as="geometry" />
        </mxCell>
        <mxCell id="kl5-Oa0DFLlWT4JjgUK3-4" value="Weight" style="shape=partialRectangle;html=1;whiteSpace=wrap;connectable=0;fillColor=none;top=0;left=0;bottom=0;right=0;overflow=hidden;" vertex="1" parent="kl5-Oa0DFLlWT4JjgUK3-2">
          <mxGeometry x="147" width="73" height="56" as="geometry" />
        </mxCell>
        <mxCell id="kl5-Oa0DFLlWT4JjgUK3-5" value="Gender" style="shape=partialRectangle;html=1;whiteSpace=wrap;connectable=0;fillColor=none;top=0;left=0;bottom=0;right=0;overflow=hidden;" vertex="1" parent="kl5-Oa0DFLlWT4JjgUK3-2">
          <mxGeometry x="220" width="73" height="56" as="geometry" />
        </mxCell>
        <mxCell id="kl5-Oa0DFLlWT4JjgUK3-17" value="Systolic Blood Pressure" style="shape=partialRectangle;html=1;whiteSpace=wrap;connectable=0;fillColor=none;top=0;left=0;bottom=0;right=0;overflow=hidden;" vertex="1" parent="kl5-Oa0DFLlWT4JjgUK3-2">
          <mxGeometry x="293" width="73" height="56" as="geometry" />
        </mxCell>
        <mxCell id="kl5-Oa0DFLlWT4JjgUK3-20" value="Diastolic Blood Pressure" style="shape=partialRectangle;html=1;whiteSpace=wrap;connectable=0;fillColor=none;top=0;left=0;bottom=0;right=0;overflow=hidden;" vertex="1" parent="kl5-Oa0DFLlWT4JjgUK3-2">
          <mxGeometry x="366" width="74" height="56" as="geometry" />
        </mxCell>
        <mxCell id="kl5-Oa0DFLlWT4JjgUK3-23" value="Cholesterol" style="shape=partialRectangle;html=1;whiteSpace=wrap;connectable=0;fillColor=none;top=0;left=0;bottom=0;right=0;overflow=hidden;" vertex="1" parent="kl5-Oa0DFLlWT4JjgUK3-2">
          <mxGeometry x="440" width="72" height="56" as="geometry" />
        </mxCell>
        <mxCell id="kl5-Oa0DFLlWT4JjgUK3-26" value="Glucose" style="shape=partialRectangle;html=1;whiteSpace=wrap;connectable=0;fillColor=none;top=0;left=0;bottom=0;right=0;overflow=hidden;" vertex="1" parent="kl5-Oa0DFLlWT4JjgUK3-2">
          <mxGeometry x="512" width="72" height="56" as="geometry" />
        </mxCell>
        <mxCell id="kl5-Oa0DFLlWT4JjgUK3-29" value="Smoking" style="shape=partialRectangle;html=1;whiteSpace=wrap;connectable=0;fillColor=none;top=0;left=0;bottom=0;right=0;overflow=hidden;" vertex="1" parent="kl5-Oa0DFLlWT4JjgUK3-2">
          <mxGeometry x="584" width="74" height="56" as="geometry" />
        </mxCell>
        <mxCell id="kl5-Oa0DFLlWT4JjgUK3-32" value="Alcohol Intake" style="shape=partialRectangle;html=1;whiteSpace=wrap;connectable=0;fillColor=none;top=0;left=0;bottom=0;right=0;overflow=hidden;" vertex="1" parent="kl5-Oa0DFLlWT4JjgUK3-2">
          <mxGeometry x="658" width="72" height="56" as="geometry" />
        </mxCell>
        <mxCell id="kl5-Oa0DFLlWT4JjgUK3-35" value="Physical Activity" style="shape=partialRectangle;html=1;whiteSpace=wrap;connectable=0;fillColor=none;top=0;left=0;bottom=0;right=0;overflow=hidden;" vertex="1" parent="kl5-Oa0DFLlWT4JjgUK3-2">
          <mxGeometry x="730" width="74" height="56" as="geometry" />
        </mxCell>
        <mxCell id="kl5-Oa0DFLlWT4JjgUK3-38" value="Prediction" style="shape=partialRectangle;html=1;whiteSpace=wrap;connectable=0;fillColor=none;top=0;left=0;bottom=0;right=0;overflow=hidden;" vertex="1" parent="kl5-Oa0DFLlWT4JjgUK3-2">
          <mxGeometry x="804" width="72" height="56" as="geometry" />
        </mxCell>
        <mxCell id="kl5-Oa0DFLlWT4JjgUK3-41" value="Timestamp" style="shape=partialRectangle;html=1;whiteSpace=wrap;connectable=0;fillColor=none;top=0;left=0;bottom=0;right=0;overflow=hidden;" vertex="1" parent="kl5-Oa0DFLlWT4JjgUK3-2">
          <mxGeometry x="876" width="74" height="56" as="geometry" />
        </mxCell>
        <mxCell id="kl5-Oa0DFLlWT4JjgUK3-44" value="Delete Prediction History" style="shape=partialRectangle;html=1;whiteSpace=wrap;connectable=0;fillColor=none;top=0;left=0;bottom=0;right=0;overflow=hidden;" vertex="1" parent="kl5-Oa0DFLlWT4JjgUK3-2">
          <mxGeometry x="950" width="72" height="56" as="geometry" />
        </mxCell>
        <mxCell id="kl5-Oa0DFLlWT4JjgUK3-6" value="" style="shape=partialRectangle;html=1;whiteSpace=wrap;collapsible=0;dropTarget=0;pointerEvents=0;fillColor=none;top=0;left=0;bottom=0;right=0;points=[[0,0.5],[1,0.5]];portConstraint=eastwest;" vertex="1" parent="kl5-Oa0DFLlWT4JjgUK3-1">
          <mxGeometry y="86" width="1022" height="54" as="geometry" />
        </mxCell>
        <mxCell id="kl5-Oa0DFLlWT4JjgUK3-15" value="18000" style="shape=partialRectangle;html=1;whiteSpace=wrap;connectable=0;fillColor=none;top=0;left=0;bottom=0;right=0;overflow=hidden;" vertex="1" parent="kl5-Oa0DFLlWT4JjgUK3-6">
          <mxGeometry width="72" height="54" as="geometry" />
        </mxCell>
        <mxCell id="kl5-Oa0DFLlWT4JjgUK3-7" value="170" style="shape=partialRectangle;html=1;whiteSpace=wrap;connectable=0;fillColor=none;top=0;left=0;bottom=0;right=0;overflow=hidden;" vertex="1" parent="kl5-Oa0DFLlWT4JjgUK3-6">
          <mxGeometry x="72" width="75" height="54" as="geometry" />
        </mxCell>
        <mxCell id="kl5-Oa0DFLlWT4JjgUK3-8" value="70.0" style="shape=partialRectangle;html=1;whiteSpace=wrap;connectable=0;fillColor=none;top=0;left=0;bottom=0;right=0;overflow=hidden;" vertex="1" parent="kl5-Oa0DFLlWT4JjgUK3-6">
          <mxGeometry x="147" width="73" height="54" as="geometry" />
        </mxCell>
        <mxCell id="kl5-Oa0DFLlWT4JjgUK3-9" value="2" style="shape=partialRectangle;html=1;whiteSpace=wrap;connectable=0;fillColor=none;top=0;left=0;bottom=0;right=0;overflow=hidden;" vertex="1" parent="kl5-Oa0DFLlWT4JjgUK3-6">
          <mxGeometry x="220" width="73" height="54" as="geometry" />
        </mxCell>
        <mxCell id="kl5-Oa0DFLlWT4JjgUK3-18" value="100" style="shape=partialRectangle;html=1;whiteSpace=wrap;connectable=0;fillColor=none;top=0;left=0;bottom=0;right=0;overflow=hidden;" vertex="1" parent="kl5-Oa0DFLlWT4JjgUK3-6">
          <mxGeometry x="293" width="73" height="54" as="geometry" />
        </mxCell>
        <mxCell id="kl5-Oa0DFLlWT4JjgUK3-21" value="123" style="shape=partialRectangle;html=1;whiteSpace=wrap;connectable=0;fillColor=none;top=0;left=0;bottom=0;right=0;overflow=hidden;" vertex="1" parent="kl5-Oa0DFLlWT4JjgUK3-6">
          <mxGeometry x="366" width="74" height="54" as="geometry" />
        </mxCell>
        <mxCell id="kl5-Oa0DFLlWT4JjgUK3-24" value="1" style="shape=partialRectangle;html=1;whiteSpace=wrap;connectable=0;fillColor=none;top=0;left=0;bottom=0;right=0;overflow=hidden;" vertex="1" parent="kl5-Oa0DFLlWT4JjgUK3-6">
          <mxGeometry x="440" width="72" height="54" as="geometry" />
        </mxCell>
        <mxCell id="kl5-Oa0DFLlWT4JjgUK3-27" value="2" style="shape=partialRectangle;html=1;whiteSpace=wrap;connectable=0;fillColor=none;top=0;left=0;bottom=0;right=0;overflow=hidden;" vertex="1" parent="kl5-Oa0DFLlWT4JjgUK3-6">
          <mxGeometry x="512" width="72" height="54" as="geometry" />
        </mxCell>
        <mxCell id="kl5-Oa0DFLlWT4JjgUK3-30" value="1" style="shape=partialRectangle;html=1;whiteSpace=wrap;connectable=0;fillColor=none;top=0;left=0;bottom=0;right=0;overflow=hidden;" vertex="1" parent="kl5-Oa0DFLlWT4JjgUK3-6">
          <mxGeometry x="584" width="74" height="54" as="geometry" />
        </mxCell>
        <mxCell id="kl5-Oa0DFLlWT4JjgUK3-33" value="0" style="shape=partialRectangle;html=1;whiteSpace=wrap;connectable=0;fillColor=none;top=0;left=0;bottom=0;right=0;overflow=hidden;" vertex="1" parent="kl5-Oa0DFLlWT4JjgUK3-6">
          <mxGeometry x="658" width="72" height="54" as="geometry" />
        </mxCell>
        <mxCell id="kl5-Oa0DFLlWT4JjgUK3-36" value="0" style="shape=partialRectangle;html=1;whiteSpace=wrap;connectable=0;fillColor=none;top=0;left=0;bottom=0;right=0;overflow=hidden;" vertex="1" parent="kl5-Oa0DFLlWT4JjgUK3-6">
          <mxGeometry x="730" width="74" height="54" as="geometry" />
        </mxCell>
        <mxCell id="kl5-Oa0DFLlWT4JjgUK3-39" value="1" style="shape=partialRectangle;html=1;whiteSpace=wrap;connectable=0;fillColor=none;top=0;left=0;bottom=0;right=0;overflow=hidden;" vertex="1" parent="kl5-Oa0DFLlWT4JjgUK3-6">
          <mxGeometry x="804" width="72" height="54" as="geometry" />
        </mxCell>
        <mxCell id="kl5-Oa0DFLlWT4JjgUK3-42" value="&lt;span&gt;1 Dec 2020&lt;/span&gt;&lt;br&gt;&lt;span&gt;12:12&lt;/span&gt;" style="shape=partialRectangle;html=1;whiteSpace=wrap;connectable=0;fillColor=none;top=0;left=0;bottom=0;right=0;overflow=hidden;" vertex="1" parent="kl5-Oa0DFLlWT4JjgUK3-6">
          <mxGeometry x="876" width="74" height="54" as="geometry" />
        </mxCell>
        <mxCell id="kl5-Oa0DFLlWT4JjgUK3-45" style="shape=partialRectangle;html=1;whiteSpace=wrap;connectable=0;fillColor=none;top=0;left=0;bottom=0;right=0;overflow=hidden;" vertex="1" parent="kl5-Oa0DFLlWT4JjgUK3-6">
          <mxGeometry x="950" width="72" height="54" as="geometry" />
        </mxCell>
        <mxCell id="kl5-Oa0DFLlWT4JjgUK3-10" value="" style="shape=partialRectangle;html=1;whiteSpace=wrap;collapsible=0;dropTarget=0;pointerEvents=0;fillColor=none;top=0;left=0;bottom=0;right=0;points=[[0,0.5],[1,0.5]];portConstraint=eastwest;" vertex="1" parent="kl5-Oa0DFLlWT4JjgUK3-1">
          <mxGeometry y="140" width="1022" height="56" as="geometry" />
        </mxCell>
        <mxCell id="kl5-Oa0DFLlWT4JjgUK3-16" value="13337" style="shape=partialRectangle;html=1;whiteSpace=wrap;connectable=0;fillColor=none;top=0;left=0;bottom=0;right=0;overflow=hidden;" vertex="1" parent="kl5-Oa0DFLlWT4JjgUK3-10">
          <mxGeometry width="72" height="56" as="geometry" />
        </mxCell>
        <mxCell id="kl5-Oa0DFLlWT4JjgUK3-11" value="123" style="shape=partialRectangle;html=1;whiteSpace=wrap;connectable=0;fillColor=none;top=0;left=0;bottom=0;right=0;overflow=hidden;" vertex="1" parent="kl5-Oa0DFLlWT4JjgUK3-10">
          <mxGeometry x="72" width="75" height="56" as="geometry" />
        </mxCell>
        <mxCell id="kl5-Oa0DFLlWT4JjgUK3-12" value="120.2" style="shape=partialRectangle;html=1;whiteSpace=wrap;connectable=0;fillColor=none;top=0;left=0;bottom=0;right=0;overflow=hidden;" vertex="1" parent="kl5-Oa0DFLlWT4JjgUK3-10">
          <mxGeometry x="147" width="73" height="56" as="geometry" />
        </mxCell>
        <mxCell id="kl5-Oa0DFLlWT4JjgUK3-13" value="1" style="shape=partialRectangle;html=1;whiteSpace=wrap;connectable=0;fillColor=none;top=0;left=0;bottom=0;right=0;overflow=hidden;" vertex="1" parent="kl5-Oa0DFLlWT4JjgUK3-10">
          <mxGeometry x="220" width="73" height="56" as="geometry" />
        </mxCell>
        <mxCell id="kl5-Oa0DFLlWT4JjgUK3-19" value="123" style="shape=partialRectangle;html=1;whiteSpace=wrap;connectable=0;fillColor=none;top=0;left=0;bottom=0;right=0;overflow=hidden;" vertex="1" parent="kl5-Oa0DFLlWT4JjgUK3-10">
          <mxGeometry x="293" width="73" height="56" as="geometry" />
        </mxCell>
        <mxCell id="kl5-Oa0DFLlWT4JjgUK3-22" value="123" style="shape=partialRectangle;html=1;whiteSpace=wrap;connectable=0;fillColor=none;top=0;left=0;bottom=0;right=0;overflow=hidden;" vertex="1" parent="kl5-Oa0DFLlWT4JjgUK3-10">
          <mxGeometry x="366" width="74" height="56" as="geometry" />
        </mxCell>
        <mxCell id="kl5-Oa0DFLlWT4JjgUK3-25" value="1" style="shape=partialRectangle;html=1;whiteSpace=wrap;connectable=0;fillColor=none;top=0;left=0;bottom=0;right=0;overflow=hidden;" vertex="1" parent="kl5-Oa0DFLlWT4JjgUK3-10">
          <mxGeometry x="440" width="72" height="56" as="geometry" />
        </mxCell>
        <mxCell id="kl5-Oa0DFLlWT4JjgUK3-28" value="2" style="shape=partialRectangle;html=1;whiteSpace=wrap;connectable=0;fillColor=none;top=0;left=0;bottom=0;right=0;overflow=hidden;" vertex="1" parent="kl5-Oa0DFLlWT4JjgUK3-10">
          <mxGeometry x="512" width="72" height="56" as="geometry" />
        </mxCell>
        <mxCell id="kl5-Oa0DFLlWT4JjgUK3-31" value="1" style="shape=partialRectangle;html=1;whiteSpace=wrap;connectable=0;fillColor=none;top=0;left=0;bottom=0;right=0;overflow=hidden;" vertex="1" parent="kl5-Oa0DFLlWT4JjgUK3-10">
          <mxGeometry x="584" width="74" height="56" as="geometry" />
        </mxCell>
        <mxCell id="kl5-Oa0DFLlWT4JjgUK3-34" value="1" style="shape=partialRectangle;html=1;whiteSpace=wrap;connectable=0;fillColor=none;top=0;left=0;bottom=0;right=0;overflow=hidden;" vertex="1" parent="kl5-Oa0DFLlWT4JjgUK3-10">
          <mxGeometry x="658" width="72" height="56" as="geometry" />
        </mxCell>
        <mxCell id="kl5-Oa0DFLlWT4JjgUK3-37" value="0" style="shape=partialRectangle;html=1;whiteSpace=wrap;connectable=0;fillColor=none;top=0;left=0;bottom=0;right=0;overflow=hidden;" vertex="1" parent="kl5-Oa0DFLlWT4JjgUK3-10">
          <mxGeometry x="730" width="74" height="56" as="geometry" />
        </mxCell>
        <mxCell id="kl5-Oa0DFLlWT4JjgUK3-40" value="0" style="shape=partialRectangle;html=1;whiteSpace=wrap;connectable=0;fillColor=none;top=0;left=0;bottom=0;right=0;overflow=hidden;" vertex="1" parent="kl5-Oa0DFLlWT4JjgUK3-10">
          <mxGeometry x="804" width="72" height="56" as="geometry" />
        </mxCell>
        <mxCell id="kl5-Oa0DFLlWT4JjgUK3-43" value="&lt;meta charset=&quot;utf-8&quot;&gt;&lt;span style=&quot;color: rgb(0, 0, 0); font-family: helvetica; font-size: 12px; font-style: normal; font-weight: 400; letter-spacing: normal; text-align: center; text-indent: 0px; text-transform: none; word-spacing: 0px; background-color: rgb(248, 249, 250); display: inline; float: none;&quot;&gt;1 Dec 2020&lt;/span&gt;&lt;br style=&quot;color: rgb(0, 0, 0); font-family: helvetica; font-size: 12px; font-style: normal; font-weight: 400; letter-spacing: normal; text-align: center; text-indent: 0px; text-transform: none; word-spacing: 0px; background-color: rgb(248, 249, 250);&quot;&gt;&lt;span style=&quot;color: rgb(0, 0, 0); font-family: helvetica; font-size: 12px; font-style: normal; font-weight: 400; letter-spacing: normal; text-align: center; text-indent: 0px; text-transform: none; word-spacing: 0px; background-color: rgb(248, 249, 250); display: inline; float: none;&quot;&gt;12:12&lt;/span&gt;" style="shape=partialRectangle;html=1;whiteSpace=wrap;connectable=0;fillColor=none;top=0;left=0;bottom=0;right=0;overflow=hidden;" vertex="1" parent="kl5-Oa0DFLlWT4JjgUK3-10">
          <mxGeometry x="876" width="74" height="56" as="geometry" />
        </mxCell>
        <mxCell id="kl5-Oa0DFLlWT4JjgUK3-46" style="shape=partialRectangle;html=1;whiteSpace=wrap;connectable=0;fillColor=none;top=0;left=0;bottom=0;right=0;overflow=hidden;" vertex="1" parent="kl5-Oa0DFLlWT4JjgUK3-10">
          <mxGeometry x="950" width="72" height="56" as="geometry" />
        </mxCell>
        <mxCell id="kl5-Oa0DFLlWT4JjgUK3-77" style="edgeStyle=orthogonalEdgeStyle;rounded=0;orthogonalLoop=1;jettySize=auto;html=1;exitX=0.5;exitY=1;exitDx=0;exitDy=0;" edge="1" parent="1" source="677b7b8949515195-1" target="677b7b8949515195-1">
          <mxGeometry relative="1" as="geometry" />
        </mxCell>
        <mxCell id="kl5-Oa0DFLlWT4JjgUK3-78" value="Remove" style="rounded=1;fillColor=#0057D8;align=center;strokeColor=none;html=1;fontColor=#ffffff;fontSize=12" vertex="1" parent="1">
          <mxGeometry x="1000" y="970" width="50" height="20" as="geometry" />
        </mxCell>
        <mxCell id="kl5-Oa0DFLlWT4JjgUK3-82" value="Remove" style="rounded=1;fillColor=#0057D8;align=center;strokeColor=none;html=1;fontColor=#ffffff;fontSize=12" vertex="1" parent="1">
          <mxGeometry x="1000" y="1020" width="50" height="20" as="geometry" />
        </mxCell>
      </root>
    </mxGraphModel>
  </diagram>
</mxfile>
